inDegrees=no
num_controls=7
num_derivatives=13
num_iterations=37
num_multipliers=7
num_parameters=0
num_slacks=7
num_states=26
objective=0.347181
objective_accelerations=0.037414
objective_balance=0.003555
objective_effort=0.033663
objective_height=0.266857
objective_ligament=0.005692
solver_duration=578.143894
status=Solve_Succeeded
success=true
DataType=double
version=3
OpenSimVersion=4.5
endheader
time	/jointset/ground_pelvis/pelvis_tilt/value	/jointset/ground_pelvis/pelvis_tx/value	/jointset/ground_pelvis/pelvis_ty/value	/jointset/hip_l/hip_flexion_l/value	/jointset/hip_l/hip_adduction_l/value	/jointset/hip_l/hip_rotation_l/value	/jointset/back/lumbar_extension/value	/jointset/patellofemoral_l/patellar_flexion_l/value	/jointset/knee_l/knee_flexion_l/value	/jointset/knee_l/knee_adduction_l/value	/jointset/knee_l/knee_rotation_l/value	/jointset/ankle_l/ankle_angle_l/value	/jointset/subtalar_l/subtalar_angle_l/value	/jointset/ground_pelvis/pelvis_tilt/speed	/jointset/ground_pelvis/pelvis_tx/speed	/jointset/ground_pelvis/pelvis_ty/speed	/jointset/hip_l/hip_flexion_l/speed	/jointset/hip_l/hip_adduction_l/speed	/jointset/hip_l/hip_rotation_l/speed	/jointset/back/lumbar_extension/speed	/jointset/patellofemoral_l/patellar_flexion_l/speed	/jointset/knee_l/knee_flexion_l/speed	/jointset/knee_l/knee_adduction_l/speed	/jointset/knee_l/knee_rotation_l/speed	/jointset/ankle_l/ankle_angle_l/speed	/jointset/subtalar_l/subtalar_angle_l/speed	/forceset/tau_hip_flexion_l	/forceset/tau_hip_adduction_l	/forceset/tau_hip_rotation_l	/forceset/tau_knee_flexion_l	/forceset/tau_ankle_angle_l	/forceset/tau_subtalar_angle_l	/forceset/tau_lumbar_extension	lambda_cid13_p0	lambda_cid13_p1	lambda_cid13_p2	lambda_cid13_p3	lambda_cid13_p4	lambda_cid13_p5	lambda_cid14_p0	/jointset/ground_pelvis/pelvis_tilt/accel	/jointset/ground_pelvis/pelvis_tx/accel	/jointset/ground_pelvis/pelvis_ty/accel	/jointset/hip_l/hip_flexion_l/accel	/jointset/hip_l/hip_adduction_l/accel	/jointset/hip_l/hip_rotation_l/accel	/jointset/back/lumbar_extension/accel	/jointset/patellofemoral_l/patellar_flexion_l/accel	/jointset/knee_l/knee_flexion_l/accel	/jointset/knee_l/knee_adduction_l/accel	/jointset/knee_l/knee_rotation_l/accel	/jointset/ankle_l/ankle_angle_l/accel	/jointset/subtalar_l/subtalar_angle_l/accel	gamma_cid13_p0	gamma_cid13_p1	gamma_cid13_p2	gamma_cid13_p3	gamma_cid13_p4	gamma_cid13_p5	gamma_cid14_p0
0.5	-0.2827245011027474	-0.03662742643324965	0.5468528224144306	1.657699216504146	-0.4714090745024776	-0.06140307101182293	-0.2614197159293595	1.600212546601244	1.600212546601287	0.115778578489018	-0.171574630006231	0.3838040360314395	0.0962396822577252	-0.125648120179949	0.01390974833010515	-1.08914035094328	3.021513629606953	-0.1537907750815989	1.040597856942978	0.01000764681121502	3.075831777395461	3.075831777395706	0.4850596419325977	0.0328844493692167	0.5407154930545784	0.1643327967327636	-0.2036529512233701	0.01763334788191106	-0.03773342088299391	-0.4369250685030583	0.06185092623802865	0.03462590684157166	0.2100996462386194	-18.62237491753288	-7.943337495029248	-3.448940408218625	-0.1612826289076556	-632.7768775005252	-52.94016130556836	-0.03096977252159584	3.697148233749945	1.166157508597597	1.76001470596955	-7.363209081660155	1.499449890280601	-0.2193653312921901	0.03941156752931886	-7.574529675030603	-7.57452967503051	-2.037008109310761	0.03694835607499426	-4.334864081279632	-0.9197959593823033	-2.210550981601996e-07	-9.96631325283396e-07	1.290381788913107e-06	-1.008065933913145e-06	-2.26828543987529e-07	2.657037190700994e-06	-6.419033462454341e-07
0.51	-0.2837978982685024	-0.03643077606164796	0.536052165699568	1.687544217421652	-0.4728727546934385	-0.05100851265420031	-0.2613172660296679	1.630590011116519	1.630590011116481	0.1205255885547564	-0.1712468651467444	0.3889953629102844	0.09783617163350439	-0.08911855229215936	0.02534328653628221	-1.070691354006258	2.947092896028543	-0.138933706586325	1.038208773783295	0.01041161338948383	2.999395100407919	2.999395100408108	0.4643260427924646	0.0325820609700357	0.4977119288249395	0.1550772209107177	-0.2065757515595688	0.01542639891470522	-0.03907031452514032	-0.4465074409730932	0.06185902533158021	0.03416465454906445	0.2126998381962188	-19.17791359536236	-7.424543738418532	-3.78431516593922	0.6898089918911191	-640.840272298834	-53.16873076341701	-0.03075923633564476	3.617686784720657	1.120199180488747	1.932247736405343	-7.540636315318269	1.48042459943579	-0.2648130480856881	0.03028123663287672	-7.718016121206373	-7.718016121214727	-2.094330717890748	-0.07649162920754302	-4.258846986484494	-0.9116329828480559	-1.501906355011124e-07	-6.875525595723662e-07	1.293025011100171e-06	-9.398501889789496e-07	-1.72568778201828e-07	2.908586406987595e-06	-5.983182784612235e-07
0.52	-0.2845086346117167	-0.03612214086721196	0.5254449800638417	1.716633184839473	-0.474187546345397	-0.04064107177609461	-0.2612128980574646	1.6601951529798	1.660195152979701	0.1250647036486343	-0.1709246560094828	0.3937615052682942	0.09934346633321729	-0.05311595566727902	0.0363067128969684	-1.050446135115852	2.870306929674669	-0.1240130672796643	1.035174361032443	0.01039126131402476	2.921367246996764	2.921367246996895	0.4434806475912925	0.03177330491912653	0.4556785888881676	0.1464938615193728	-0.2094985518958266	0.01321944994755079	-0.04040720816763696	-0.4560898134431461	0.06186712442515238	0.0337034022566659	0.2153000301537582	-19.75644650296143	-6.901990604837394	-4.11998457741509	1.572105188514678	-649.2075054328479	-53.50386841682391	-0.03053561413140619	3.591753981167478	1.072135139499744	2.119259096646202	-7.836255636752277	1.512164052557447	-0.3484312495260315	-0.04545216321829408	-7.892764959752748	-7.892764959752746	-2.059367321518652	-0.0643251742713028	-4.140819222705564	-0.785352673242304	-7.951017312273484e-08	-3.61824095224066e-07	1.331819060455898e-06	-8.49852031594357e-07	-1.155908963439238e-07	3.166693193610504e-06	-5.507243030109955e-07
0.53	-0.2848629059954896	-0.03570642311374552	0.5150489103064257	1.744943163125197	-0.4753526757282461	-0.03030709173397281	-0.2611106062637247	1.689012231715379	1.689012231715274	0.1293949596139878	-0.1706123453805667	0.3981126081639102	0.1007689397836164	-0.01789983745573655	0.04674058891468943	-1.028498758014931	2.79133926157524	-0.1090224287095089	1.031484248593859	0.01000207179458882	2.841798156310487	2.841798156310506	0.4225613502081384	0.03060965544362032	0.4147449027536768	0.1387224668342917	-0.2112165790813775	0.01072284015488371	-0.0417672505771375	-0.4650124937743797	0.06231203471903204	0.03317620327365782	0.2168783752607314	-20.12316062293863	-6.387479089729042	-4.454835522199746	2.416374219717212	-656.2765959469997	-53.78503472592315	-0.03030824757085248	3.462230221326706	1.014415985557779	2.272818636435614	-7.979518978053123	1.49089698307387	-0.4001932973159517	-0.04540619791681964	-8.026427547098265	-8.026427547115206	-2.109860684337038	-0.1539046939988007	-4.039209197849295	-0.7549196189925043	-2.974086299331323e-08	-2.98896861444196e-08	1.493239118351596e-06	-7.493498563855503e-07	-5.425077397997119e-08	3.698780118148169e-06	-5.400391152079497e-07
0.54	-0.2848698783011344	-0.03518928616957166	0.5048803826439421	1.772452965413597	-0.4763682220806332	-0.02001419122749184	-0.2610141571354952	1.717026130259289	1.71702613025919	0.1335156926581274	-0.1703139752183398	0.402060461020372	0.1021203219365949	0.01634385996299294	0.05659055103845162	-1.004937716129174	2.710271730215236	-0.09409646118617386	1.026958453903618	0.009222728210736513	2.760731208662886	2.760731208662791	0.4015760633200559	0.02898521157576541	0.3750285810580543	0.1316756020351469	-0.212934606267025	0.008226230362176205	-0.04312729298641658	-0.4739351741056077	0.06275694501290945	0.03264900429056607	0.2184567203676026	-20.51270569127454	-5.87122413336713	-4.787389281451794	3.295177277419676	-663.6487944175379	-54.17804108087402	-0.03005436628820445	3.397269822604299	0.9553523607083125	2.441992053613234	-8.256228288866593	1.499229843192971	-0.5155676998574003	-0.1234829761035636	-8.192336352016978	-8.192336352016977	-2.072565222504362	-0.1564840527416258	-3.897346334931211	-0.6404466960551676	-3.107295777630437e-09	3.089108745528864e-07	1.790330504844711e-06	-6.372262146478256e-07	1.191565702897115e-08	4.533994003783014e-06	-5.701891818230637e-07
